<?xml version="1.0" encoding="UTF-8"?>
<!DOCTYPE svg PUBLIC "-//W3C//DTD SVG 1.1//EN" "http://www.w3.org/Graphics/SVG/1.1/DTD/svg11.dtd">
<!-- Creator: CorelDRAW 2020 (64-Bit) -->
<svg xmlns="http://www.w3.org/2000/svg" xml:space="preserve" width="8.1456mm" height="10.5784mm" version="1.1" style="shape-rendering:geometricPrecision; text-rendering:geometricPrecision; image-rendering:optimizeQuality; fill-rule:evenodd; clip-rule:evenodd"
viewBox="0 0 1561.86 2028.33"
 xmlns:xlink="http://www.w3.org/1999/xlink"
 xmlns:xodm="http://www.corel.com/coreldraw/odm/2003">
 <defs>
  <style type="text/css">
   <![CDATA[
    .str0 {stroke:#282829;stroke-width:85.46;stroke-linecap:round;stroke-miterlimit:22.9256}
    .str1 {stroke:#FFDA6E;stroke-width:85.46;stroke-linecap:round;stroke-miterlimit:22.9256}
    .fil5 {fill:none}
    .fil2 {fill:#282829}
    .fil0 {fill:black}
    .fil4 {fill:black}
    .fil1 {fill:#FFDA6E;fill-rule:nonzero}
    .fil3 {fill:#FFDA6E;fill-rule:nonzero;fill-opacity:0.258824}
   ]]>
  </style>
 </defs>
 <g id="Capa_x0020_1">
  <metadata id="CorelCorpID_0Corel-Layer"/>
  <g id="_2472067529904">
   <path class="fil0" d="M1514.94 266.29c25.9,0 46.92,21.01 46.92,46.92l0 636.76c0,343.7 -152.03,681.93 -423.77,895.49 -102.79,80.78 -218.24,143.62 -343.79,180.91 -4.35,1.28 -8.82,1.96 -13.36,1.96 -4.53,0 -9.03,-0.67 -13.36,-1.96 -125.55,-37.26 -241,-100.13 -343.79,-180.91 -271.74,-213.54 -423.77,-551.82 -423.77,-895.49l0 -636.76c0,-25.89 21.03,-46.92 46.92,-46.92 182.77,0 368.22,-35.95 529.61,-124.21 52.36,-28.63 129,-79.23 168.37,-125.82 18.12,-21.67 53.94,-21.67 72,-0.06 39.69,46.61 117.04,97.41 169.62,126.05 161.22,87.86 345.94,124.04 528.42,124.04zm-734.01 1666.05c109.04,-34.32 209.42,-90.1 299.18,-160.64 249.23,-195.86 387.91,-506.72 387.91,-821.73l0 -590.57c-239.28,-7.67 -507.48,-80.23 -687.09,-246.31 -179.68,166.07 -447.74,238.62 -687.09,246.31l0 590.57c0,314.99 138.67,625.89 387.91,821.73 89.75,70.52 190.13,126.36 299.18,160.64z"/>
  </g>
  <path class="fil1" d="M1514.94 279.85c-488.04,0 -706.28,-252.43 -708.39,-254.9 -12.67,-15.21 -38.56,-15.21 -51.23,0 -2.15,2.53 -218.11,254.9 -708.39,254.9 -18.41,0 -33.36,14.96 -33.36,33.36l0 636.76c0,348.09 156.48,678.88 418.59,884.83 105.65,83.04 219.79,143.14 339.27,178.57 3.11,0.94 6.31,1.4 9.51,1.4 3.2,0 6.37,-0.46 9.51,-1.4 119.47,-35.47 233.62,-95.53 339.27,-178.57 262.11,-205.99 418.59,-536.74 418.59,-884.83l0 -636.76c0,-18.41 -14.92,-33.36 -33.36,-33.36zm-33.36 670.12c0,327.76 -146.93,638.94 -393.09,832.39 -96.2,75.6 -199.62,130.79 -307.55,164.19 -107.93,-33.36 -211.36,-88.58 -307.55,-164.19 -246.16,-193.41 -393.09,-504.63 -393.09,-832.39l0 -603.76c408.45,-9.07 629.41,-183.4 700.65,-251.74 71.23,68.38 292.2,242.67 700.65,251.74l0 603.76z"/>
  <path class="fil2" d="M754.56 268.78c14.32,-9.72 33.02,-10.78 48.32,-2.67 15.36,8.15 24.95,24.06 24.95,41.45l0 1462.38c0,15.49 -7.69,29.99 -20.48,38.73 -7.78,5.31 -16.99,8.17 -26.42,8.17 -5.85,0 -11.68,-1.09 -17.12,-3.24 -77.94,-30.56 -150.56,-73.82 -216.3,-125.5 -223.92,-175.96 -347.3,-455.5 -347.3,-738.11l0 -448.98c0,-23.6 17.56,-43.54 40.99,-46.52 180.83,-23.09 361.84,-82.81 513.37,-185.72zm7.61 11.2c-100.59,68.36 -272.35,156.44 -519.28,187.95 -16.68,2.13 -29.16,16.32 -29.16,33.09l0 448.98c0,287.15 127.89,559.1 342.13,727.47 67.45,53 139.09,94.59 212.89,123.54 3.93,1.53 8.07,2.3 12.18,2.3 6.62,0 13.17,-1.97 18.79,-5.81 9.11,-6.23 14.57,-16.55 14.57,-27.55l0 -1462.38c0,-12.39 -6.85,-23.68 -17.76,-29.49 -10.87,-5.73 -24.12,-5 -34.36,1.9z"/>
  <path class="fil3" d="M762.18 279.98c-100.59,68.36 -272.35,156.44 -519.28,187.95 -16.68,2.13 -29.16,16.32 -29.16,33.09l0 448.98c0,287.15 127.89,559.1 342.13,727.47 67.45,53 139.09,94.59 212.89,123.54 3.93,1.53 8.07,2.3 12.18,2.3 6.62,0 13.17,-1.97 18.79,-5.81 9.11,-6.23 14.57,-16.55 14.57,-27.55l0 -1462.38c0,-12.39 -6.85,-23.68 -17.76,-29.49 -10.87,-5.73 -24.12,-5 -34.36,1.9z"/>
  <path class="fil4" d="M554.44 575.69c-2.3,3.97 -0.23,2.03 -3.82,3.97 -1.27,3.49 -16.85,18.62 -18.64,19.77 1.46,8.28 9.53,19.6 12.46,28.32 2.63,3.78 21.84,42.57 22.2,47.51l-4.08 1.48c-2.59,3.18 -8.65,7.11 -12.41,8.63 -0.9,2.17 -5.73,4.43 -8.55,6.39 -3.41,2.38 -6.58,5.29 -9.99,5.98 -3.16,7.55 1.17,23.97 0.92,33.75l-32 8.63 -23.14 6.46 -19.12 5.14c-7,-9.36 -14.92,-17.99 -22.26,-27.28 -4.68,-5.96 -2.57,-18.81 -1.25,-20.94 4.47,-7.13 10.39,-7.5 10.85,-13.4 -3.7,2.11 -6.21,5.1 -10.91,7.38 -2.61,-2.55 -6.21,-7.27 -6.71,-11.08 -1.13,-0.94 -0.73,-0.48 -1.8,-1.69 -0.13,-0.15 -1.34,-1.8 -1.36,-1.84 -0.96,-1.59 -1.28,-2.7 -1.9,-4.64l-2.74 -5.52 -1.05 2.44 1.61 3.8c3.66,12.79 12.02,15.32 6.65,24.77 1.53,5.37 0.15,13.21 -0.21,19.02 2.32,1.94 1.59,0.94 2.8,4.35 2.59,2.47 11.64,19.29 12.23,23.35 2.05,1.55 4.62,6.42 5.98,9.4 2.36,5.1 2.49,91.94 2.17,97.19 -14.84,6.29 -14.61,6.04 -21.42,1.17l-36.58 -26.23c-3.62,-2.57 -15.45,-10.55 -17.1,-13.58 -2.57,-0.59 -17.56,-11.1 -19.88,-13.36l-0.35 1.21c1.32,0.42 0.04,-0.33 2.11,1.21 0.9,0.67 1.82,1.55 2.68,2.36l13.81 13.42c1.23,1.61 0.38,0.13 0.92,1.57 2.88,1.34 0.98,-0.13 3.43,2.38 1.25,1.28 1.3,1.76 2.15,2.97 2.3,0.46 12.87,10.87 14.13,13.17 -2.49,2.47 -13.48,10.68 -17.26,11.7 1.78,1.57 -0.15,0.84 2.82,1.11l20.44 -3.82c5.73,-1.99 13.69,6.04 21.84,11.73l43.7 31.31c5.69,4.01 5.43,3.14 7.17,10.99 1.17,5.25 3.3,10.8 2.91,15.99 0.94,1.28 0.25,0 1.15,2.19 0.29,0.73 0.56,1.65 0.77,2.4 0.36,1.28 0.67,2.95 0.98,4.31 0.44,2.36 1.59,8.46 2.38,10.57 1.86,5.08 3.59,2.65 5.62,6.86 3.7,1.42 6.08,4.06 9.32,6.56 2.88,2.22 6.21,4.05 8.24,7.31 2.84,0.82 4.91,2.97 7.69,5.12 2.8,2.17 5.85,3.83 7.15,6.44 3.95,1.57 7.13,4.79 10.51,7.31 3.32,2.47 7.08,4.99 9.17,8.23l-29.62 11.14c-5.43,4.51 -2.9,5.46 -5.77,11.85 -0.54,2.93 -0.94,4.58 -1.67,7.29l-2.53 6.14c0.44,4.95 -2.15,8.21 -2.21,13.31 0.29,-1.65 1.78,-4.3 3.51,-5.45 1.5,-3.99 3.45,-8.34 6.58,-10.95 0.38,-2.07 2.53,-6.63 3.97,-8.8 2.47,-3.72 4.37,-3.62 8.94,-3.13 3.95,-3.01 15.45,-3.68 21,-4.16 3.09,2.9 27.44,39 29.24,43.26 1.84,0.94 1.4,0.75 1.88,3.05 -4.35,2.93 -14.94,8.94 -19.4,9.55 -4.51,5.69 -3.78,0.86 -2.93,11.37l2.32 30.56 -12.16 -9.93c-0.48,0.48 -0.54,0.25 -1.27,1.71l3.43 6.29c7.4,17.1 4.77,13.52 18.54,27.07 1.67,1.63 6.27,6.67 8.17,7.9l-4.01 -12.06c-0.48,-3.85 -2.74,-7.29 -3.07,-11.6 -0.25,-3.39 0.81,-10.95 1.42,-14.25l3.11 -28.28c3.62,1.25 8.95,4.43 11.18,7.44 3.43,0.59 24.62,14.11 27.44,16.8l-2.8 7.09c-1.38,5.18 -6.88,20.96 -10.01,23.85 -0.5,8.97 -7.34,11.6 -4.87,21.57 3.51,2.34 13.73,16.99 14.96,19.79l7.32 9.15c2.72,3.72 5.41,6.83 7.59,10.8 -1.67,3.18 -12,16.18 -14.48,17.24 -2.24,3.74 -3.47,5.29 -6.42,8.63 -3.28,3.7 -5.39,4.58 -4.76,11.64 1.61,5.06 3.99,14.63 3.03,19.86 0.15,0.25 0.35,0.35 0.4,0.77 0.06,0.44 0.31,0.59 0.38,0.79 0.08,0.19 0.25,0.54 0.35,0.79l2.17 11.24c0.88,4.89 1.82,9.28 2.55,14.4 1.38,5.31 8.72,43.64 8.19,48.55 2.38,3.37 3.83,17.53 5.14,22.11l-2.63 -27.25 -0.67 -11.66c-2.88,-3.7 -3.72,-25.29 -4.2,-31.7 -1.25,-6.44 -2.68,-15.01 -1.92,-21.9 -2.28,-3.14 -2.86,-17.62 -3.24,-22.63 3.3,0.29 10.07,4.16 13.75,5.94 4.56,2.19 10.22,3.95 13.21,7.38l5.66 2.34c5.23,1.88 1.44,14.17 4.05,17.81 2.24,2.9 7.09,2.68 11.31,4.22l3.59 1.84c3.78,-0.21 11.16,1.48 14.05,3.43 3.78,0.63 10.28,1.57 12.64,3.91l11.75 2.47 3.53 13.79 0.48 -14.8 -6.15 -2.3 -12.56 -3.28 -23.99 -7.11c-2.51,-0.5 -4.81,-0.98 -6.98,-1.61 -3.11,-0.94 -2.8,-0.4 -4.66,-2.45 -2.07,-2.68 -2.09,-10.45 -2.61,-14.67 -2.09,-3.83 -7.71,-4.85 -9.97,-8.19 -4.95,-1.99 -20.15,-11.68 -22.53,-14.48 -1.94,-0.4 -0.96,0.81 -1.36,-1.46 3.47,-3.74 26.81,-32.39 27.94,-35.7 -2.84,-4.2 -3.66,-3.68 -4.51,-7.23 -3.45,-2.09 -2.26,-1.04 -3.53,-4.54 -3.36,-1.55 -6.96,-7.92 -9.99,-11.73l-7.08 -9.2c-2.17,-2.91 -1.3,-0.54 -1.82,-3.6 -1.21,-0.92 -0.75,-0.54 -1.86,-1.61l-3.74 -4.64c-0.29,-1.53 9.4,-16.82 10.93,-18.73l1.71 -1.73c0.61,-4.6 16.41,-27.17 19.69,-34.28 -7.17,-8.05 -13.13,-11.96 -19.48,-18.79 -6.86,-7.4 -26.59,-23.53 -29.11,-28.67 -3.41,-7 -17.1,-36.09 -17.49,-40.04 -3.07,-3.01 -6.62,-11.39 -7.82,-16.26 3.07,0.12 19.6,1.63 22.78,3.62 5.58,-1.38 4.74,0.21 7.84,-5.23 6.5,-11.37 3.59,-7.4 24.29,-15.21 8.42,-3.16 7.98,-7.17 11.64,-14.8 2.8,-5.83 5.23,-11.73 8.57,-17.53 5.04,-1.04 11.33,-1.9 16.28,-0.86 3.7,-2.22 16.99,-1.34 22.13,-2.45 4.99,-1.09 1.07,0.61 4.49,-2.88l0.06 -3.6c0.21,-1.42 1.13,-5.16 1.17,-6.1 0.23,-5.06 0.42,-1.74 -0.96,-3.45 -0.1,2.51 -1.88,6.86 -4.14,7.84 -4.58,2.8 -42.41,2.67 -44.73,2.03 -1.34,3.85 -8.13,23.72 -10.85,26.61l-1.61 7.38 -18.14 -0.44c0.02,-6.04 2.97,-15.47 0.63,-20.73l-8.03 -9.47c-2.13,-2.88 -1.04,-0.86 -1.51,-2.84 -0.25,-0.15 -0.56,-0.38 -0.71,-0.52l-11.7 -14.02c-2.13,-0.56 -0.77,0.04 -2.82,-2.26 -5.31,-5.89 -5.33,-4.68 -5.27,-10.83 0.33,-30.56 2.95,-16.47 -11.72,-32.92 -0.96,-1.09 -0.71,-0.82 -1.04,-1.4l-4.93 0.61c1.28,4.2 11.24,12.31 14.73,14.28l-1.27 28.45c2.99,1.38 10.39,10.81 11.52,13.58 3.64,1.71 3.36,2.05 4.76,5.25 1.55,0.79 0.9,0.35 2.55,1.9 0.94,0.86 1.32,1.34 1.97,2.09 1.65,1.9 2.47,3.11 4.2,4.97 3.26,3.53 6.83,5.2 5,11.77 -1.4,13.02 -5.52,19.44 -9.87,30.22 -3.55,-0.48 -8.36,-1.96 -10.57,-4.43 -4.14,-0.19 -17.56,-5.48 -20.08,-7.31 -5.46,-1.32 -10.39,-4.54 -15.07,-7.08 -3.32,-1.78 -11.49,-4.79 -13.27,-7.84l-24.16 -11.43c-8.21,-5.18 -2.63,-23.07 -7.92,-40.34 -1.9,-1.17 -6.71,-7.69 -6.98,-10.66 -2.3,-2.21 -0.65,1.71 -2.05,-4.01l-2.45 -34.17 -0.15 -9.74c-2.7,-4.01 -3.34,-33.25 -3.83,-40.73l-0.88 -15.91c5.35,-1.94 16.37,-8.15 20.94,-8.32 1.99,-2.51 3.87,-2.82 7.23,-3.83 2.53,-2.21 17.74,-9.22 21.92,-9.43 1.82,-2.05 0,-0.58 3.03,-2.26 4.43,-2.49 18.14,-8.61 21.69,-8.88 0.9,-1.32 0.02,-0.52 2.03,-1.86l7.61 -3.7c5.48,-2.26 6.9,-0.46 11.2,1.84 15.65,8.4 10.87,6.23 18.85,1.73 1.51,-1.07 3.43,-2.53 5.16,-3.76 2.99,-2.13 2.21,-2.11 5.14,-2.44 2.24,-3.16 8.26,-7.38 12.18,-8.09 4.66,3.28 12.81,8.51 15.21,12.19 1.4,0.33 2.47,-0.38 3.03,2.17 6.5,2.84 7.84,6.25 13.27,8.51 -1.94,-3.49 -3.18,-2.49 -5.33,-6.54 -1.99,-0.44 0.13,0.46 -1.82,-0.73 -1.19,-0.73 -0.92,-0.63 -1.61,-1.28 -5.08,-4.76 -18.66,-18.23 -22.74,-20.11 -16.72,7.31 -27.92,22.17 -35.7,13.21 -4.3,-1.17 -11.27,-5.66 -14.48,-5.18 -4.45,0.69 -9.57,4.68 -14.63,5.54 -2.19,-3.64 -7.82,-34.53 -7.29,-39.77l6.27 -2.8c2.22,-3.28 1.02,-1.3 3.26,-1.65 2.36,-3.09 21.67,-14.23 26.12,-15.86 1,-2.34 8,-5.94 11.2,-6.48l1.86 -2.63 -12.37 -21.63 -0.12 -0.81c-3.87,-2.68 -12.73,-18.81 -14.78,-24.06 -2.01,-1.05 -4.01,-5.68 -5.29,-7.82 -0.98,-1.65 -1.8,-2.84 -2.7,-4.41 -2.03,-3.62 -1.19,-1.34 -1.61,-4.12 -2.67,-2.01 -5.02,-5.75 -6.65,-9.09 -1.99,-4.12 0.52,-6.23 2.91,-10.3l9.8 -16.62c1.27,-1.51 0.42,-0.63 1.84,-1.78 -0.94,-1.76 -0.33,-0.73 -1.19,-1.4l-4.95 3.83z"/>
  <g id="_2472067532736">
   <g>
    <path class="fil5 str0" d="M1302.31 1612.98l-432.67 -432.69c-74.47,68.76 -172.3,107.13 -273.96,107.13 -223.05,0 -403.96,-180.89 -403.96,-403.96 0,-223.07 180.91,-403.98 403.96,-403.98 223.07,0 403.96,180.91 403.96,403.98 0,104.06 -40.21,204.13 -112.04,279.22l432.49 432.51 15.47 -15.47 -281.42 -281.38 17.79 -17.79 299.19 299.18 -84.31 84.31 -299.18 -299.18 17.79 -17.79 281.38 281.38 15.47 -15.45zm-438.27 -462.16l1.97 -2.01c69.49,-70.81 108.49,-166.13 108.49,-265.35 0,-209.19 -169.63,-378.83 -378.83,-378.83 -209.19,0 -378.83,169.62 -378.83,378.83 0,209.17 169.65,378.81 378.83,378.81 99.23,0 194.58,-38.98 265.37,-108.51l2.99 -2.93z"/>
   </g>
   <path class="fil5 str1" d="M1071.95 1298.33l281.4 281.38 -66.52 66.52 -281.38 -281.38m-130.46 -207.22c71.81,-73.15 112.07,-171.63 112.07,-274.17 0,-216.13 -175.25,-391.4 -391.38,-391.4 -216.13,0 -391.38,175.27 -391.38,391.4 0,216.11 175.25,391.38 391.38,391.38 102.54,0 201.02,-40.29 274.17,-112.11l434.89 434.87"/>
  </g>
  <g id="_2472067532784">
   <g>
    <path class="fil5 str0" d="M1302.31 1612.98l-432.67 -432.69c-74.47,68.76 -172.3,107.13 -273.96,107.13 -223.05,0 -403.96,-180.89 -403.96,-403.96 0,-223.07 180.91,-403.98 403.96,-403.98 223.07,0 403.96,180.91 403.96,403.98 0,104.06 -40.21,204.13 -112.04,279.22l432.49 432.51 15.47 -15.47 -281.42 -281.38 17.79 -17.79 299.19 299.18 -84.31 84.31 -299.18 -299.18 17.79 -17.79 281.38 281.38 15.47 -15.45zm-438.27 -462.16l1.97 -2.01c69.49,-70.81 108.49,-166.13 108.49,-265.35 0,-209.19 -169.63,-378.83 -378.83,-378.83 -209.19,0 -378.83,169.62 -378.83,378.83 0,209.17 169.65,378.81 378.83,378.81 99.23,0 194.58,-38.98 265.37,-108.51l2.99 -2.93z"/>
   </g>
   <path class="fil5 str1" d="M1071.95 1298.33l281.4 281.38 -66.52 66.52 -281.38 -281.38m-130.46 -207.22c71.81,-73.15 112.07,-171.63 112.07,-274.17 0,-216.13 -175.25,-391.4 -391.38,-391.4 -216.13,0 -391.38,175.27 -391.38,391.4 0,216.11 175.25,391.38 391.38,391.38 102.54,0 201.02,-40.29 274.17,-112.11l434.89 434.87"/>
  </g>
 </g>
</svg>
