<?xml version="1.0" encoding="UTF-8"?>
<!DOCTYPE svg PUBLIC "-//W3C//DTD SVG 1.1//EN" "http://www.w3.org/Graphics/SVG/1.1/DTD/svg11.dtd">
<!-- Creator: CorelDRAW 2020 (64-Bit) -->
<svg xmlns="http://www.w3.org/2000/svg" xml:space="preserve" width="11.8775mm" height="9.7878mm" version="1.1" style="shape-rendering:geometricPrecision; text-rendering:geometricPrecision; image-rendering:optimizeQuality; fill-rule:evenodd; clip-rule:evenodd"
viewBox="0 0 162.09 133.57"
 xmlns:xlink="http://www.w3.org/1999/xlink"
 xmlns:xodm="http://www.corel.com/coreldraw/odm/2003">
 <defs>
  <style type="text/css">
   <![CDATA[
    .fil1 {fill:#F6EE66}
    .fil0 {fill:#282829}
   ]]>
  </style>
 </defs>
 <g id="Capa_x0020_1">
  <metadata id="CorelCorpID_0Corel-Layer"/>
  <g id="_2096548435040">
   <path class="fil0" d="M26.15 115.17c0,-2.6 -0.75,-4.85 -1.99,-7.1 -0.14,-0.26 -0.89,-1.65 -1.19,-1.76 -0.21,-0.08 -0.92,-0.11 -1.18,-0.15 -1.11,-0.16 -2.19,-0.54 -3.22,-0.98 -10.29,-4.39 -14.07,-16.97 -7.31,-26.02 3.12,-4.18 8.01,-6.93 13.28,-6.93l105.59 0c2.1,0 3.55,1.45 3.55,3.55 0,2.04 -2.39,4.17 -3.27,6.23 -2.33,5.47 -2.12,11.07 0.85,16.25 0.12,0.21 0.59,1.05 0.84,1.14 0.28,0.11 1.31,0.16 1.7,0.24 1.63,0.33 3.29,1.1 4.75,1.87 14.95,7.93 9.62,32.07 -9.07,32.07l-104.3 0c-2.13,0 -3.87,-1.74 -3.87,-3.87 0,-1.46 2.48,-4.1 3.22,-5.68 1.66,-3.56 1.63,-5.03 1.63,-8.85zm97.53 -35.84c-29.93,0 -59.86,0 -89.78,0 -2.56,0 -5.14,-0.14 -7.7,-0 -5.72,0.3 -10.92,3.45 -11.05,9.67 -0.08,3.8 1.98,7.36 5.4,9.06 2.62,1.3 3.34,0.97 6.25,0.97l96.68 0c-0.76,-1.87 -1.49,-4.24 -1.69,-6.14l-87.89 0c-5.07,0 -4.26,-7.1 -0.65,-7.1l88.51 0c0.21,-2.6 1.21,-4.26 1.92,-6.46zm-92.16 27.12c0.82,1.93 1.51,4.08 1.69,6.14l87.55 0c5.2,0 5.45,7.42 0.32,7.42l-87.87 0c-0.17,2.03 -0.82,4.23 -1.65,6.14 29.62,0 59.25,0 88.87,0 3.67,0 10.64,0.6 13.81,-0.87 5.63,-2.62 7.44,-10.2 3.58,-15.05 -4.09,-5.13 -11.91,-3.78 -17.71,-3.78 -29.53,0 -59.06,0 -88.59,0zm7.86 -83.08c-2.23,-0.34 -5.58,-1.52 -7.53,-2.01 -2.44,-0.61 -6.69,-0.97 -7.59,-3.75 -1.38,-4.25 2.91,-4.7 5.76,-5.48 2.63,-0.72 5.26,-1.48 7.89,-2.13l35.97 -9.57c2.21,-0.59 2.43,-0.58 4.63,0l39.57 10.51c3.15,0.93 11.45,1.48 10.23,6.42 -0.41,1.65 -1.35,2.25 -2.71,2.64l0 19.56c0.98,0.42 2.06,1.14 2.9,1.63 1.63,0.95 2.59,1.85 2.59,3.89l0 16.47c0,2.13 -1.74,3.87 -3.87,3.87 -1.5,0 -3.87,-2.1 -5.43,-3.28 -1.51,1.3 -3.91,3.28 -5.54,3.28 -2.1,0 -3.55,-1.45 -3.55,-3.55l0 -13.24c-0.53,1.18 -1.67,1.88 -3.12,2.17 -1.45,0.28 -2.91,0.52 -4.37,0.8 -10.07,1.95 -20.31,4.45 -30.62,4.45 -4.48,0 -11.77,-1.56 -16.3,-2.35 -5.18,-0.91 -10.6,-1.82 -15.72,-3.02 -1.98,-0.46 -3.18,-1.54 -3.18,-3.67l0 -23.66zm73.62 19.78c0.45,-0.97 1.33,-1.56 2.45,-2.14 1.03,-0.54 1.7,-1.1 2.72,-1.47l0 -17.54c-1.73,0.35 -3.37,1.13 -5.17,1.39l0 19.76zm-70.79 -26.69l33.99 9.08 9.38 -2.4c3.12,-0.93 6.31,-1.58 9.43,-2.5 4.96,-1.47 10.12,-2.51 15.11,-3.92l-5.89 -1.88c-3.16,-0.79 -6.25,-1.73 -9.41,-2.52 -3.16,-0.78 -6.28,-1.72 -9.43,-2.53 -2.17,-0.56 -7.07,-2.23 -9.05,-2.37l-9.52 2.47c-4.65,1.38 -9.46,2.6 -14.16,3.84 -3.13,0.83 -6.27,1.66 -9.41,2.44 -0.27,0.07 -0.63,0.17 -1.03,0.27zm4.6 8.87l-0 16.22c-0,0.32 -0.17,2.28 -0.1,2.46 0.32,0.29 10.4,1.99 11.19,2.15 8.77,1.77 15.88,3.41 24.89,2.16l23.11 -4.36 0 -18.61 -6.47 1.69c-2.57,0.67 -5.13,1.36 -7.7,2 -3.4,0.84 -12.8,3.98 -15.55,3.95 -1.98,-0.02 -5.74,-1.42 -7.84,-1.95 -2.57,-0.65 -5.12,-1.35 -7.69,-2 -4.63,-1.16 -9.2,-2.58 -13.84,-3.72zm72.98 29.24c0.59,-0.35 1.23,-0.62 1.93,-0.63 0.85,-0.01 1.43,0.22 1.95,0.55l0 -7.78c-0.77,-0.38 -1.5,-0.95 -1.93,-0.87 -0.44,0.12 -1.29,0.69 -1.94,1.09l0 7.63zm-94.61 -14.98l0 22.29c0,3.73 -1.86,6.46 -5.81,6.46 -4.93,0 -13.56,1.64 -13.56,-5.81l0 -22.93c-3.17,-0.05 -5.81,-0.54 -5.81,-4.84 0,-1.69 0.64,-2.04 1.55,-3.16 0.59,-0.72 1.22,-1.38 1.81,-2.09 1.14,-1.35 2.24,-2.73 3.42,-4.04 1.86,-2.09 5.43,-7.83 8.4,-7.83 3.04,0 3.75,1.69 5.5,3.65l7.08 8.36c1.3,1.36 3.25,3.44 3.25,5.42 0,3.9 -2.85,4.44 -5.81,4.51zm-9.68 -13.03l-4.94 5.88c1.77,0.55 2.67,1.94 2.67,4.25l0 24.22 4.52 0 0 -24.86c0,-2.05 1.18,-3.18 2.81,-3.64 -0.2,-0.26 -0.43,-0.52 -0.72,-0.82l-4.34 -5.03zm140.77 13.03l0 22.93c0,2.85 -2.15,5.81 -5.17,5.81 -5.72,0 -14.21,1.92 -14.21,-6.46l0 -22.29c-2.96,-0.07 -5.81,-0.61 -5.81,-4.51 0,-2.05 2.08,-4.16 3.38,-5.56l3.56 -4.21c2.27,-2.55 5.12,-7.67 8.88,-7.67 2.46,0 3.61,2.22 5,3.79 0.6,0.68 1.12,1.42 1.79,2.12l3.41 4.02c0.59,0.69 1.14,1.42 1.75,2.09 1.21,1.36 3.23,3.14 3.23,5.09 0,4.3 -2.64,4.78 -5.81,4.84zm-9.79 -13.14c-1.39,1.4 -3.21,4.06 -4.45,5.34 -0.21,0.22 -0.38,0.41 -0.54,0.61 1.64,0.45 2.83,1.59 2.83,3.64l0 24.86 4.52 0 0 -24.86c0,-1.99 1.12,-3.12 2.68,-3.6l-5.04 -6z"/>
  </g>
  <g id="_2096548434368">
   <path class="fil1" d="M30.03 105.48c30.03,0 60.06,0 90.09,0 7.21,0 14.2,-1.2 18.46,4.14 4.06,5.08 2.59,13.5 -3.92,16.53 -3.31,1.54 -9.46,0.96 -14.21,0.96 -30.14,0 -60.27,0 -90.41,0 1,-1.9 2.26,-5.19 2.26,-8.07l88.8 0c3.85,0 3.59,-5.49 -0.32,-5.49l-88.47 0c0,-2.87 -1.31,-6.09 -2.26,-8.07zm92.67 -18.73l-89.44 0c-2.32,0 -3.16,5.17 0.65,5.17l88.8 0c0,2.46 1.43,6.35 2.26,8.07l-98.16 0c-3.69,0 -4.03,0.25 -6.68,-1.07 -8.98,-4.46 -8.39,-19.81 6.04,-20.57 2.43,-0.13 5.27,0 7.75,0 30.35,0 60.7,0 91.06,0 -0.48,2.08 -2.26,4.95 -2.26,8.4zm-95.58 28.42c0,3.97 0.05,5.47 -1.72,9.26 -1.07,2.29 -3.13,4.12 -3.13,5.27 0,1.6 1.31,2.91 2.91,2.91l104.3 0c17.99,0 22.42,-22.92 8.61,-30.25 -6.51,-3.45 -5.88,-0.49 -7.68,-3.62 -3.13,-5.45 -3.37,-11.3 -0.9,-17.11 1.24,-2.91 3.19,-4.04 3.19,-5.85 0,-1.56 -1.02,-2.58 -2.58,-2.58l-105.59 0c-5.62,0 -10.03,3.22 -12.51,6.55 -5.98,8.01 -3.46,20.13 6.92,24.55 4.79,2.04 4.01,-0.39 6.06,3.31 1.16,2.09 2.12,4.53 2.12,7.57z"/>
   <path class="fil1" d="M118.83 56.4l0 -10.01c0.57,-0.3 2.17,-1.39 2.72,-1.49 1.31,-0.24 1.51,0.79 3.09,1.16l0 10.33c-0.88,-0.59 -1.61,-1.49 -2.91,-1.48 -1,0.01 -2.1,0.95 -2.9,1.48zm-72.98 -32.29c5.07,1.18 9.91,2.72 15.04,4.01 2.78,0.7 4.89,1.29 7.69,2 1.83,0.46 6.25,1.9 7.62,1.92 1.47,0.02 12.61,-3.25 15.31,-3.92 2.71,-0.67 5.17,-1.35 7.69,-2l7.68 -2.01 0 20.67 -23.91 4.51c-9.26,1.28 -16.08,-0.31 -25.25,-2.17 -13.78,-2.79 -11.91,-0.94 -11.87,-5.57l0 -17.44zm-7.75 -7.75c1.53,-0.03 26.25,-6.73 28.45,-7.39l9.69 -2.51c0.85,-0.02 7.97,2.04 9.39,2.41 3.2,0.82 6.17,1.72 9.42,2.52 3.33,0.83 6.13,1.69 9.43,2.52l8.91 2.84c-4.44,1.44 -13.11,3.34 -18.11,4.82 -3.02,0.9 -6.43,1.61 -9.44,2.51l-9.65 2.47 -38.1 -10.18zm2.26 6.13l0 24.54c0,1.69 0.91,2.37 2.43,2.73 4.84,1.13 27.73,5.34 31.79,5.34 10.14,0 20.49,-2.52 30.44,-4.44 1.63,-0.31 2.68,-0.47 4.36,-0.8 1.41,-0.28 2.66,-1.02 2.66,-2.83l0 -24.54c2.42,-0.05 4.64,-1.41 7.1,-1.61l0 19.37c-1.38,0.32 -2.09,1 -3.23,1.61 -1.14,0.6 -2.25,1.18 -2.25,2.91l0 17.11c0,1.56 1.02,2.58 2.58,2.58 1.45,0 4.23,-2.46 5.49,-3.55 1.44,0.96 4.24,3.55 5.49,3.55 1.6,0 2.91,-1.31 2.91,-2.91l0 -16.47c0,-1.76 -0.93,-2.37 -2.11,-3.06 -0.93,-0.54 -2.45,-1.54 -3.38,-1.79l0 -20.99c1.39,-0.32 2.36,-0.59 2.74,-2.12 0.92,-3.72 -5.25,-3.98 -9.56,-5.26l-39.55 -10.51c-2.09,-0.55 -2.04,-0.56 -4.14,-0l-35.97 9.57c-2.47,0.61 -5.45,1.46 -7.88,2.13 -2.58,0.71 -6.18,0.91 -5.1,4.25 0.65,2.01 3.34,2.22 6.91,3.11 1.79,0.45 6.89,2.04 8.26,2.07z"/>
   <path class="fil1" d="M15.5 25.08l5.09 5.89c0.87,0.91 1.02,1.18 1.69,2.18 -2.04,0.05 -3.55,0.86 -3.55,2.91l0 25.83 -6.46 0 0 -25.19c0,-2.48 -1.11,-3.5 -3.55,-3.55l6.78 -8.07zm-14.53 9.69c0,4.3 3.36,3.88 5.81,3.88l0 23.89c0,6.22 6.77,4.84 12.59,4.84 3.29,0 4.84,-2.16 4.84,-5.49l0 -23.25c2.45,0 5.81,0.19 5.81,-3.55 0,-1.63 -1.93,-3.65 -2.99,-4.76l-7.11 -8.39c-1.46,-1.64 -2.13,-3.31 -4.76,-3.31 -2.35,0 -6,5.62 -7.68,7.5 -1.27,1.42 -2.16,2.56 -3.4,4.03 -0.69,0.82 -1.11,1.22 -1.8,2.07 -0.64,0.79 -1.33,1.16 -1.33,2.54z"/>
   <path class="fil1" d="M146.59 25.08l6.78 8.07c-2.04,0.05 -3.55,0.86 -3.55,2.91l0 25.83 -6.46 0 0 -25.83c0,-2.05 -1.51,-2.86 -3.55,-2.91 0.59,-0.87 0.75,-1.21 1.53,-2.02 1.32,-1.38 4.2,-5.28 5.25,-6.05zm-14.53 10.01c0,3.74 3.37,3.55 5.81,3.55l0 23.25c0,6.9 5.65,5.49 13.24,5.49 2.33,0 4.2,-2.35 4.2,-4.84l0 -23.89c2.45,0 5.81,0.42 5.81,-3.88 0,-1.48 -1.71,-3.02 -2.98,-4.44 -0.62,-0.7 -1.13,-1.36 -1.76,-2.11l-3.41 -4.02c-0.75,-0.79 -1.03,-1.27 -1.77,-2.1 -1.07,-1.2 -2.31,-3.47 -4.28,-3.47 -3.12,0 -5.05,3.85 -8.16,7.34l-3.55 4.2c-1.21,1.3 -3.15,3.28 -3.15,4.93z"/>
  </g>
 </g>
</svg>
