<?xml version="1.0" encoding="UTF-8"?>
<!DOCTYPE svg PUBLIC "-//W3C//DTD SVG 1.1//EN" "http://www.w3.org/Graphics/SVG/1.1/DTD/svg11.dtd">
<!-- Creator: CorelDRAW 2020 (64-Bit) -->
<svg xmlns="http://www.w3.org/2000/svg" xml:space="preserve" width="11.9638mm" height="11.9769mm" version="1.1" style="shape-rendering:geometricPrecision; text-rendering:geometricPrecision; image-rendering:optimizeQuality; fill-rule:evenodd; clip-rule:evenodd"
viewBox="0 0 283.45 283.76"
 xmlns:xlink="http://www.w3.org/1999/xlink"
 xmlns:xodm="http://www.corel.com/coreldraw/odm/2003">
 <defs>
  <style type="text/css">
   <![CDATA[
    .fil0 {fill:#282829}
    .fil1 {fill:#FFDA6E;fill-opacity:0.639216}
    .fil2 {fill:#FFDA6E}
   ]]>
  </style>
 </defs>
 <g id="Capa_x0020_1">
  <metadata id="CorelCorpID_0Corel-Layer"/>
  <path class="fil0" d="M198.02 215.88l-158.28 0 0 -189.28c0,-7.93 3.91,-16.96 10.63,-21.47 9.65,-6.48 15.2,-5 26.23,-4.96l180.15 0.66 -0 3.35 -1.68 0c-5.02,0 -8.96,2.33 -12.74,5.38 -10.79,8.69 -7.08,35.48 -7.08,48.31l0 191.5c0,6.75 0.54,10.92 -3.44,16.7 -4.76,6.91 -9.27,7.78 -17.13,7.78 -9.37,0 -16.66,-9.75 -16.66,-18.62l0 -39.36zm-133.81 -34.9c0,-3.74 2.8,-7.16 6.52,-7.16l133.53 0c8.56,0 8.56,14.33 0,14.33l-133.53 0c-3.71,0 -6.52,-3.43 -6.52,-7.16zm98.36 -89.24c0,-5.15 2.67,-7.82 7.82,-7.82 4.24,0 13.81,11.53 17.1,14.82 2.76,2.76 5.05,5.05 7.82,7.82 11.41,11.39 6.73,12.49 -7.49,26.71 -2.93,2.93 -4.97,4.83 -7.56,8.08 -9.95,12.48 -17.68,6.4 -17.68,-0.75 0,-3.23 2.57,-4.87 4.39,-6.68 2.06,-2.05 3.93,-3.75 5.87,-5.85l11.23 -12.22c-5.36,-3.59 -12.14,-12.51 -16.77,-17.1 -1.87,-1.85 -4.72,-3.7 -4.72,-7zm-73.61 24.75c3.12,2.09 7.35,7.67 11.23,11.56 2.82,2.82 10.26,8.6 10.26,13.19 0,5.23 -3.94,7.16 -8.47,7.16 -3.39,0 -9.88,-7.34 -12.87,-10.58l-11.39 -12.06c-11.26,-11.26 -7.09,-12.13 7.49,-26.71 2.73,-2.73 5.39,-5.02 7.65,-7.98 10.77,-14.12 17.59,-3.94 17.59,-0.65 0,5.79 -5.67,8.5 -12.57,16.74 -2.46,2.94 -6.75,6.06 -8.93,9.31zm42.99 35.17c-12.78,0 -6.71,-15.18 -4.94,-25.13 1.05,-5.88 2.07,-11.07 3.25,-16.94 1.2,-5.93 2.17,-11.05 3.26,-16.93 0.51,-2.79 0.79,-5.9 1.75,-8.02 2.85,-6.27 13.6,-4.64 13.6,3.18 0,3.49 -0.69,5.72 -1.25,8.52 -0.61,3.04 -0.97,5.59 -1.62,8.8l-8.16 41.99c-0.83,2.05 -3.35,4.53 -5.89,4.53zm-67.74 -96.4c0,-3.81 3.36,-7.16 7.17,-7.16l132.23 0c8.18,0 11.92,14.98 -2.6,14.98l-127.02 0c-5.85,0 -9.77,-2.04 -9.77,-7.82zm-22.8 -28.66l0 187.6 158.28 0 0 41.04c0,8.38 6.93,16.94 14.98,16.94 6.78,0 11.14,-0.36 15.75,-7.05 3.43,-4.98 3.15,-7.83 3.14,-15.75l0 -191.5c0,-16.74 -3.63,-40.49 7.7,-49.62 3.4,-2.74 7.85,-5.75 13.79,-5.75l-178.48 -0.65c-13.49,0 -16.66,-1.12 -25.29,4.67 -5.26,3.53 -9.88,11.37 -9.88,20.08zm-39.73 209.09l0 24.75c0,6.9 6.11,14.6 10.53,17.48 7.7,5.03 12.07,4.02 23.99,4.02 56.67,0 113.34,0 170.01,0l0 -0.65c-10.33,0 -20.84,-11.08 -20.84,-21.5l0 -30.61 -177.17 0c-3.27,0 -6.51,3.24 -6.51,6.51zm246.22 -208.44l0 29.96c0,1.5 0.45,1.95 1.95,1.95l23.45 0c4.52,0 8.47,-2.76 8.47,-7.16l0 -29.31c0,-18.91 -33.87,-23.14 -33.87,4.56zm-182.01 28.01c0,5.07 3.64,6.14 8.09,6.14l127.02 0c12.25,0 8.62,-11.62 2.6,-11.62l-132.23 0c-2.88,0 -5.49,2.61 -5.49,5.48zm70.34 91.39l8.13 -41.82c0.57,-2.93 1.03,-5.89 1.63,-8.81 0.58,-2.86 1.22,-5.19 1.22,-8.18 0,-5.96 -8.26,-7.18 -10.4,-2.49 -0.94,2.06 -1.21,5.35 -1.63,7.63 -1.04,5.66 -2.13,11.32 -3.26,16.96 -1.13,5.63 -2.24,11.25 -3.25,16.9 -1.19,6.69 -7.84,23.15 3.28,23.15 1.68,0 3.61,-1.84 4.28,-3.34zm-48.66 -31.09c2.45,-3.65 6.26,-6.14 9.03,-9.46 3.15,-3.76 12.18,-10.91 12.18,-15.67 0,-1.74 -2.12,-4.03 -3.68,-4.64 -4.18,-1.63 -8.72,3.46 -10.89,6.31 -2.31,3.02 -5.13,5.47 -7.8,8.15 -2.62,2.62 -13.23,11.8 -13.42,15.49 -0.15,2.9 4.08,7 5.96,8.88l11.41 12.07c1.86,2.01 9.02,10.04 11.64,10.04 3.71,0 6.79,-1.34 6.79,-5.48 0,-3.69 -7.28,-9.51 -9.77,-12 -3.17,-3.17 -7.52,-9.03 -10.98,-11.35l-1.39 -0.93 0.93 -1.4zm76.68 -23.82c0,2.51 2.63,4.23 4.22,5.81 5.15,5.1 10.68,12.98 16.53,16.9l1.63 1.09 -12.55 13.66c-1.89,2.06 -3.94,3.94 -5.93,5.91 -1.56,1.55 -3.9,3.04 -3.9,5.48 0,2.01 0.77,4.25 2.47,5.45 4.24,3.01 9.88,-2.81 12.22,-5.75 2.39,-3 4.98,-5.52 7.68,-8.22 2.66,-2.66 13.14,-11.65 13.39,-15.37 0.2,-2.97 -4,-7.07 -5.9,-8.96 -2.61,-2.6 -5.21,-5.21 -7.82,-7.82 -2.56,-2.56 -12.66,-14.33 -15.91,-14.33 -4.21,0 -6.14,1.92 -6.14,6.14zm-98.36 89.24c0,2.69 1.97,5.48 4.84,5.48l133.53 0c6.34,0 6.34,-10.97 0,-10.97l-133.53 0c-2.87,0 -4.84,2.8 -4.84,5.48zm-65.89 54.72c0,-4.2 3.99,-8.19 8.19,-8.19l178.85 0 0 32.29c0,9.37 9.65,19.82 19.16,19.82l1.68 0 0 4.01 -1.68 0c-56.67,0 -113.34,0 -170.01,0 -9.8,0 -16.32,1.31 -24.91,-4.29 -5.6,-3.66 -11.29,-12.02 -11.29,-18.89l0 -24.75zm246.22 -208.44c0,-29.92 37.23,-25.68 37.23,-4.56l0 29.31c0,5.57 -4.96,8.84 -10.15,8.84l-23.45 0c-2.44,0 -3.63,-1.19 -3.63,-3.63l0 -29.96z"/>
  <path class="fil1" d="M64.21 180.98c0,-3.74 2.8,-7.16 6.52,-7.16l133.53 0c8.56,0 8.56,14.33 0,14.33l-133.53 0c-3.71,0 -6.52,-3.43 -6.52,-7.16zm98.36 -89.24c0,-5.15 2.67,-7.82 7.82,-7.82 4.24,0 13.81,11.53 17.1,14.82 2.76,2.76 5.05,5.05 7.82,7.82 11.41,11.39 6.73,12.49 -7.49,26.71 -2.93,2.93 -4.97,4.83 -7.56,8.08 -9.95,12.48 -17.68,6.4 -17.68,-0.75 0,-3.23 2.57,-4.87 4.39,-6.68 2.06,-2.05 3.93,-3.75 5.87,-5.85l11.23 -12.22c-5.36,-3.59 -12.14,-12.51 -16.77,-17.1 -1.87,-1.85 -4.72,-3.7 -4.72,-7zm-73.61 24.75c3.12,2.09 7.35,7.67 11.23,11.56 2.82,2.82 10.26,8.6 10.26,13.19 0,5.23 -3.94,7.16 -8.47,7.16 -3.39,0 -9.88,-7.34 -12.87,-10.58l-11.39 -12.06c-11.26,-11.26 -7.09,-12.13 7.49,-26.71 2.73,-2.73 5.39,-5.02 7.65,-7.98 10.77,-14.12 17.59,-3.94 17.59,-0.65 0,5.79 -5.67,8.5 -12.57,16.74 -2.46,2.94 -6.75,6.06 -8.93,9.31zm42.99 35.17c-12.78,0 -6.71,-15.18 -4.94,-25.13 1.05,-5.88 2.07,-11.07 3.25,-16.94 1.2,-5.93 2.17,-11.05 3.26,-16.93 0.51,-2.79 0.79,-5.9 1.75,-8.02 2.85,-6.27 13.6,-4.64 13.6,3.18 0,3.49 -0.69,5.72 -1.25,8.52 -0.61,3.04 -0.97,5.59 -1.62,8.8l-8.16 41.99c-0.83,2.05 -3.35,4.53 -5.89,4.53zm-67.74 -96.4c0,-3.81 3.36,-7.16 7.17,-7.16l132.23 0c8.18,0 11.92,14.98 -2.6,14.98l-127.02 0c-5.85,0 -9.77,-2.04 -9.77,-7.82zm-22.8 -28.66l0 187.6 158.28 0 0 41.04c0,8.38 6.93,16.94 14.98,16.94 6.78,0 11.14,-0.36 15.75,-7.05 3.43,-4.98 3.15,-7.83 3.14,-15.75l0 -191.5c0,-16.74 -3.63,-40.49 7.7,-49.62 3.4,-2.74 7.85,-5.75 13.79,-5.75l-178.48 -0.65c-13.49,0 -16.66,-1.12 -25.29,4.67 -5.26,3.53 -9.88,11.37 -9.88,20.08z"/>
  <path class="fil2" d="M1.68 235.7l0 24.75c0,6.9 6.11,14.6 10.53,17.48 7.7,5.03 12.07,4.02 23.99,4.02 56.67,0 113.34,0 170.01,0l0 -0.65c-10.33,0 -20.84,-11.08 -20.84,-21.5l0 -30.61 -177.17 0c-3.27,0 -6.51,3.24 -6.51,6.51z"/>
  <path class="fil2" d="M247.9 27.26l0 29.96c0,1.5 0.45,1.95 1.95,1.95l23.45 0c4.52,0 8.47,-2.76 8.47,-7.16l0 -29.31c0,-18.91 -33.87,-23.14 -33.87,4.56z"/>
 </g>
</svg>
